<mxfile host="Electron" agent="Mozilla/5.0 (Windows NT 10.0; Win64; x64) AppleWebKit/537.36 (KHTML, like Gecko) draw.io/25.0.2 Chrome/128.0.6613.186 Electron/32.2.5 Safari/537.36" version="25.0.2">
  <diagram name="Página-1" id="yEm_uzBkTQKGEnw9K8FJ">
    <mxGraphModel dx="1434" dy="836" grid="1" gridSize="10" guides="1" tooltips="1" connect="1" arrows="1" fold="1" page="1" pageScale="1" pageWidth="827" pageHeight="1169" math="0" shadow="0">
      <root>
        <mxCell id="0" />
        <mxCell id="1" parent="0" />
        <mxCell id="RC3i8TY2xjRaoZdbiKLx-2" value="&lt;div&gt;2) Programa: Calcular o IMC de uma pessoa &lt;br&gt;( IMC = peso / (altura x altura) )&lt;/div&gt;&lt;div&gt;•&amp;nbsp;&lt;span style=&quot;background-color: initial;&quot;&gt;Leia o peso (em KG – Ex: 87.5 ) inteiros&lt;/span&gt;&lt;/div&gt;&lt;div&gt;•&amp;nbsp;&lt;span style=&quot;background-color: initial;&quot;&gt;Leia a altura (em MT – Ex: 1.75)&lt;/span&gt;&lt;/div&gt;&lt;div&gt;•&amp;nbsp;&lt;span style=&quot;background-color: initial;&quot;&gt;Calcular o IMC&lt;/span&gt;&lt;/div&gt;&lt;div&gt;•&amp;nbsp;&lt;span style=&quot;background-color: initial;&quot;&gt;Mostre o resultado&lt;/span&gt;&lt;/div&gt;&lt;div&gt;•&amp;nbsp;&lt;span style=&quot;background-color: initial;&quot;&gt;Se resultado for igual ou maior que 25.00 mostrar “Indice acima”&lt;/span&gt;&lt;/div&gt;" style="text;html=1;align=center;verticalAlign=middle;whiteSpace=wrap;rounded=0;" vertex="1" parent="1">
          <mxGeometry x="10" y="10" width="300" height="130" as="geometry" />
        </mxCell>
        <mxCell id="RC3i8TY2xjRaoZdbiKLx-14" value="" style="edgeStyle=orthogonalEdgeStyle;rounded=0;orthogonalLoop=1;jettySize=auto;html=1;" edge="1" parent="1" source="RC3i8TY2xjRaoZdbiKLx-4" target="RC3i8TY2xjRaoZdbiKLx-5">
          <mxGeometry relative="1" as="geometry" />
        </mxCell>
        <mxCell id="RC3i8TY2xjRaoZdbiKLx-4" value="INÍCIO" style="ellipse;whiteSpace=wrap;html=1;" vertex="1" parent="1">
          <mxGeometry x="340" y="20" width="120" height="50" as="geometry" />
        </mxCell>
        <mxCell id="RC3i8TY2xjRaoZdbiKLx-15" value="" style="edgeStyle=orthogonalEdgeStyle;rounded=0;orthogonalLoop=1;jettySize=auto;html=1;" edge="1" parent="1" source="RC3i8TY2xjRaoZdbiKLx-5" target="RC3i8TY2xjRaoZdbiKLx-6">
          <mxGeometry relative="1" as="geometry" />
        </mxCell>
        <mxCell id="RC3i8TY2xjRaoZdbiKLx-5" value="PESO" style="shape=parallelogram;html=1;strokeWidth=2;perimeter=parallelogramPerimeter;whiteSpace=wrap;rounded=1;arcSize=12;size=0.23;" vertex="1" parent="1">
          <mxGeometry x="315" y="150" width="170" height="40" as="geometry" />
        </mxCell>
        <mxCell id="RC3i8TY2xjRaoZdbiKLx-16" value="" style="edgeStyle=orthogonalEdgeStyle;rounded=0;orthogonalLoop=1;jettySize=auto;html=1;" edge="1" parent="1" source="RC3i8TY2xjRaoZdbiKLx-6" target="RC3i8TY2xjRaoZdbiKLx-7">
          <mxGeometry relative="1" as="geometry" />
        </mxCell>
        <mxCell id="RC3i8TY2xjRaoZdbiKLx-6" value="ALTURA" style="shape=parallelogram;html=1;strokeWidth=2;perimeter=parallelogramPerimeter;whiteSpace=wrap;rounded=1;arcSize=12;size=0.23;" vertex="1" parent="1">
          <mxGeometry x="315" y="270" width="170" height="40" as="geometry" />
        </mxCell>
        <mxCell id="RC3i8TY2xjRaoZdbiKLx-17" value="" style="edgeStyle=orthogonalEdgeStyle;rounded=0;orthogonalLoop=1;jettySize=auto;html=1;" edge="1" parent="1" source="RC3i8TY2xjRaoZdbiKLx-7" target="RC3i8TY2xjRaoZdbiKLx-8">
          <mxGeometry relative="1" as="geometry" />
        </mxCell>
        <mxCell id="RC3i8TY2xjRaoZdbiKLx-7" value="IMC = PESO / (ALTURA * ALTURA)" style="rounded=1;whiteSpace=wrap;html=1;" vertex="1" parent="1">
          <mxGeometry x="290" y="380" width="220" height="60" as="geometry" />
        </mxCell>
        <mxCell id="RC3i8TY2xjRaoZdbiKLx-18" value="" style="edgeStyle=orthogonalEdgeStyle;rounded=0;orthogonalLoop=1;jettySize=auto;html=1;" edge="1" parent="1" source="RC3i8TY2xjRaoZdbiKLx-8" target="RC3i8TY2xjRaoZdbiKLx-9">
          <mxGeometry relative="1" as="geometry" />
        </mxCell>
        <mxCell id="RC3i8TY2xjRaoZdbiKLx-8" value="IMC" style="strokeWidth=2;html=1;shape=mxgraph.flowchart.display;whiteSpace=wrap;" vertex="1" parent="1">
          <mxGeometry x="315" y="510" width="170" height="70" as="geometry" />
        </mxCell>
        <mxCell id="RC3i8TY2xjRaoZdbiKLx-20" value="" style="edgeStyle=orthogonalEdgeStyle;rounded=0;orthogonalLoop=1;jettySize=auto;html=1;entryX=0;entryY=0.5;entryDx=0;entryDy=0;" edge="1" parent="1" source="RC3i8TY2xjRaoZdbiKLx-9" target="RC3i8TY2xjRaoZdbiKLx-10">
          <mxGeometry relative="1" as="geometry">
            <mxPoint x="540" y="735" as="targetPoint" />
          </mxGeometry>
        </mxCell>
        <mxCell id="RC3i8TY2xjRaoZdbiKLx-22" value="" style="edgeStyle=orthogonalEdgeStyle;rounded=0;orthogonalLoop=1;jettySize=auto;html=1;entryX=1;entryY=0.5;entryDx=0;entryDy=0;" edge="1" parent="1" source="RC3i8TY2xjRaoZdbiKLx-9" target="RC3i8TY2xjRaoZdbiKLx-11">
          <mxGeometry relative="1" as="geometry">
            <mxPoint x="260" y="735" as="targetPoint" />
          </mxGeometry>
        </mxCell>
        <mxCell id="RC3i8TY2xjRaoZdbiKLx-9" value="IMC &amp;gt;= 25.00?" style="strokeWidth=2;html=1;shape=mxgraph.flowchart.decision;whiteSpace=wrap;" vertex="1" parent="1">
          <mxGeometry x="340" y="680" width="120" height="110" as="geometry" />
        </mxCell>
        <mxCell id="RC3i8TY2xjRaoZdbiKLx-24" value="" style="edgeStyle=orthogonalEdgeStyle;rounded=0;orthogonalLoop=1;jettySize=auto;html=1;entryX=1;entryY=0.5;entryDx=0;entryDy=0;entryPerimeter=0;" edge="1" parent="1" source="RC3i8TY2xjRaoZdbiKLx-10" target="RC3i8TY2xjRaoZdbiKLx-13">
          <mxGeometry relative="1" as="geometry">
            <mxPoint x="720" y="845" as="targetPoint" />
            <Array as="points">
              <mxPoint x="720" y="925" />
            </Array>
          </mxGeometry>
        </mxCell>
        <mxCell id="RC3i8TY2xjRaoZdbiKLx-10" value="ÍNDICE ACIMA" style="rounded=1;whiteSpace=wrap;html=1;" vertex="1" parent="1">
          <mxGeometry x="660" y="705" width="120" height="60" as="geometry" />
        </mxCell>
        <mxCell id="RC3i8TY2xjRaoZdbiKLx-26" value="" style="edgeStyle=orthogonalEdgeStyle;rounded=0;orthogonalLoop=1;jettySize=auto;html=1;entryX=0;entryY=0.5;entryDx=0;entryDy=0;entryPerimeter=0;" edge="1" parent="1" source="RC3i8TY2xjRaoZdbiKLx-11" target="RC3i8TY2xjRaoZdbiKLx-13">
          <mxGeometry relative="1" as="geometry">
            <mxPoint x="110" y="845" as="targetPoint" />
            <Array as="points">
              <mxPoint x="110" y="925" />
            </Array>
          </mxGeometry>
        </mxCell>
        <mxCell id="RC3i8TY2xjRaoZdbiKLx-11" value="ÍNDICE NORMAL" style="rounded=1;whiteSpace=wrap;html=1;" vertex="1" parent="1">
          <mxGeometry x="50" y="705" width="120" height="60" as="geometry" />
        </mxCell>
        <mxCell id="RC3i8TY2xjRaoZdbiKLx-12" value="FIM" style="ellipse;whiteSpace=wrap;html=1;" vertex="1" parent="1">
          <mxGeometry x="340" y="1070" width="120" height="50" as="geometry" />
        </mxCell>
        <mxCell id="RC3i8TY2xjRaoZdbiKLx-28" value="" style="edgeStyle=orthogonalEdgeStyle;rounded=0;orthogonalLoop=1;jettySize=auto;html=1;entryX=0.5;entryY=0;entryDx=0;entryDy=0;" edge="1" parent="1" source="RC3i8TY2xjRaoZdbiKLx-13" target="RC3i8TY2xjRaoZdbiKLx-12">
          <mxGeometry relative="1" as="geometry">
            <mxPoint x="400" y="1030" as="targetPoint" />
          </mxGeometry>
        </mxCell>
        <mxCell id="RC3i8TY2xjRaoZdbiKLx-13" value="" style="strokeWidth=2;html=1;shape=mxgraph.flowchart.start_2;whiteSpace=wrap;" vertex="1" parent="1">
          <mxGeometry x="377" y="900" width="46" height="50" as="geometry" />
        </mxCell>
        <mxCell id="RC3i8TY2xjRaoZdbiKLx-29" value="SIM" style="text;html=1;align=center;verticalAlign=middle;resizable=0;points=[];autosize=1;strokeColor=none;fillColor=none;" vertex="1" parent="1">
          <mxGeometry x="530" y="700" width="40" height="30" as="geometry" />
        </mxCell>
        <mxCell id="RC3i8TY2xjRaoZdbiKLx-30" value="NÃO" style="text;html=1;align=center;verticalAlign=middle;resizable=0;points=[];autosize=1;strokeColor=none;fillColor=none;" vertex="1" parent="1">
          <mxGeometry x="235" y="700" width="50" height="30" as="geometry" />
        </mxCell>
      </root>
    </mxGraphModel>
  </diagram>
</mxfile>
